<?xml version="1.0" encoding="utf-8"?>
<!-- Generator: Adobe Illustrator 16.0.0, SVG Export Plug-In . SVG Version: 6.00 Build 0)  -->
<!DOCTYPE svg PUBLIC "-//W3C//DTD SVG 1.1//EN" "http://www.w3.org/Graphics/SVG/1.1/DTD/svg11.dtd">
<svg version="1.1" xmlns="http://www.w3.org/2000/svg" xmlns:xlink="http://www.w3.org/1999/xlink" x="0px" y="0px" width="750px"
	 height="500px" viewBox="0 0 750 500" enable-background="new 0 0 750 500" xml:space="preserve">
<g id="BACKGROUND">
</g>
<g id="OBJECTS">
	<g>
		<g>
			<g>
				<path fill="#FFAC9D" d="M184.906,202.782c-5.946-15.98-42.314-23.612-48.683-28.244c-8.176-5.946-5.575-25.642-5.575-25.642
					l-13.378,0.352l-13.378-0.352c0,0,2.602,19.696-5.574,25.642c-6.369,4.632-42.737,12.264-48.683,28.244
					s-8.176,30.102-8.176,30.102h75.068h1.486h75.068C193.082,232.884,190.852,218.762,184.906,202.782z"/>
				<path fill="#CC887F" d="M101.413,170.869c6.263-0.64,12.558-1.909,18.011-4.959c3.975-2.223,7.554-4.848,10.876-7.803
					c-0.197-5.062,0.348-9.21,0.348-9.21l-13.378,0.352l-13.378-0.352C103.892,148.896,105.743,162.915,101.413,170.869z"/>
			</g>
			<g>
				<path fill="#6F96BD" d="M185.96,202.561c-4.63-12.445-27.565-19.861-40.704-24.743c-5.713,6.594-15.858,10.983-27.429,10.983
					s-21.716-4.389-27.429-10.983c-13.139,4.882-36.074,12.298-40.704,24.743c-5.99,16.097-8.236,30.323-8.236,30.323h75.62h1.498
					h75.621C194.197,232.884,191.951,218.658,185.96,202.561z"/>
				<path fill="#85B7E0" d="M117.779,193.901c14.678,0,27.273-5.844,32.673-14.178c-1.843-0.675-3.592-1.309-5.195-1.904
					c-5.713,6.594-15.858,10.983-27.429,10.983s-21.716-4.389-27.429-10.983c-1.625,0.604-3.401,1.247-5.272,1.933
					C90.536,188.07,103.118,193.901,117.779,193.901z"/>
			</g>
		</g>
		<g>
			<g>
				<path fill="#CC887F" d="M94.806,118.192c-2.161-6.704-7.277-5.151-7.756-4.99c-0.502,0.059-5.791,0.844-4.877,7.827
					c0.919,7.025,4.996,10.833,8.818,9.714C94.923,130.12,96.979,124.935,94.806,118.192z"/>
				<path fill="#CC887F" d="M138.063,118.192c2.161-6.704,7.277-5.151,7.756-4.99c0.502,0.059,5.791,0.844,4.877,7.827
					c-0.919,7.025-4.996,10.833-8.817,9.714C137.946,130.12,135.89,124.935,138.063,118.192z"/>
				<path fill="#FFAC9D" d="M143.525,107.646c-2.678-29.387-25.019-27.741-27.126-27.52c-2.107-0.222-24.448-1.868-27.126,27.52
					c-2.693,29.563,10.474,48.87,27.126,47.808C133.051,156.516,146.219,137.209,143.525,107.646z"/>
			</g>
			<g>
				<g>
					<path fill="#CC887F" d="M119.592,117.68c0.16,0.472,0.281,0.95,0.413,1.426c0.137,0.476,0.247,0.955,0.359,1.434
						c0.219,0.958,0.407,1.922,0.578,2.887c0.159,0.967,0.322,1.934,0.439,2.907c0.133,0.971,0.233,1.946,0.317,2.924l0.021,0.253
						l-0.156,0.134c-0.589,0.504-1.19,0.996-1.799,1.479c-0.627,0.464-1.229,0.956-1.881,1.393c0.473-0.628,0.996-1.202,1.493-1.803
						c0.516-0.582,1.039-1.156,1.574-1.717l-0.135,0.386c-0.193-0.962-0.371-1.927-0.516-2.896c-0.161-0.967-0.275-1.94-0.393-2.914
						c-0.107-0.975-0.196-1.952-0.254-2.934c-0.026-0.491-0.055-0.982-0.057-1.477C119.588,118.67,119.571,118.178,119.592,117.68z"
						/>
				</g>
				<path fill="#FFFFFF" d="M103.463,136.842l26.513-0.277C129.977,136.565,119.374,146.999,103.463,136.842z"/>
				<g>
					<path fill="#CC887F" d="M110.263,142.167c0,0,0.283,0.062,0.77,0.194c0.486,0.113,1.175,0.385,2.01,0.512
						c0.416,0.073,0.861,0.152,1.325,0.25c0.457,0.125,0.98,0.086,1.492,0.159c0.519,0.046,1.051,0.117,1.595,0.07
						c0.542-0.022,1.095-0.02,1.643-0.059c0.543-0.086,1.087-0.172,1.622-0.257c0.545-0.047,1.036-0.277,1.539-0.402
						c0.493-0.158,0.995-0.252,1.415-0.484c0.432-0.202,0.85-0.38,1.239-0.545c0.401-0.146,0.714-0.374,1.016-0.542
						c0.299-0.177,0.56-0.331,0.774-0.458c0.434-0.252,0.696-0.387,0.696-0.387s-0.195,0.208-0.562,0.558
						c-0.186,0.173-0.412,0.384-0.67,0.626c-0.264,0.238-0.54,0.545-0.928,0.752c-0.369,0.235-0.774,0.491-1.211,0.748
						c-0.421,0.293-0.93,0.463-1.449,0.659c-0.261,0.098-0.525,0.197-0.793,0.297l-0.406,0.15l-0.429,0.079
						c-0.576,0.104-1.16,0.209-1.745,0.314c-0.592,0.031-1.186,0.017-1.769,0.025c-0.586,0.041-1.149-0.094-1.696-0.173
						c-0.544-0.104-1.076-0.136-1.558-0.322c-0.486-0.153-0.939-0.312-1.353-0.458c-0.426-0.124-0.772-0.312-1.079-0.484
						c-0.309-0.166-0.579-0.31-0.801-0.429C110.51,142.32,110.263,142.167,110.263,142.167z"/>
				</g>
				<g>
					<ellipse fill="#352C38" cx="104.334" cy="118.123" rx="1.835" ry="4.008"/>
					<ellipse fill="#352C38" cx="129.549" cy="118.123" rx="1.835" ry="4.008"/>
				</g>
				<g>
					<path fill="#352C38" d="M97.996,111.565c0,0,0.318-0.96,1.311-2.075c0.261-0.261,0.522-0.58,0.868-0.84
						c0.328-0.282,0.702-0.551,1.123-0.788c0.4-0.268,0.889-0.434,1.362-0.632c0.508-0.124,1.013-0.305,1.561-0.316
						c0.27-0.015,0.54-0.035,0.809-0.038c0.27,0.024,0.537,0.066,0.801,0.102c0.538,0.035,1.015,0.281,1.484,0.441
						c0.468,0.174,0.842,0.486,1.219,0.717c0.387,0.224,0.632,0.579,0.906,0.835c0.264,0.269,0.497,0.517,0.644,0.788
						c0.167,0.252,0.292,0.485,0.397,0.672c0.206,0.377,0.301,0.6,0.301,0.6s-0.234-0.106-0.604-0.304
						c-0.183-0.101-0.407-0.217-0.642-0.364c-0.229-0.159-0.532-0.266-0.829-0.412c-0.311-0.12-0.601-0.333-0.959-0.417
						c-0.351-0.093-0.686-0.273-1.06-0.333c-0.375-0.046-0.735-0.191-1.124-0.174c-0.191-0.011-0.383-0.017-0.574-0.04l-0.582,0.048
						c-0.391-0.016-0.774,0.133-1.166,0.173c-0.376,0.133-0.772,0.192-1.135,0.354c-0.373,0.129-0.733,0.273-1.073,0.433
						c-0.35,0.137-0.663,0.317-0.977,0.452c-0.303,0.16-0.581,0.307-0.827,0.438c-0.251,0.137-0.47,0.257-0.65,0.356
						C98.208,111.448,97.996,111.565,97.996,111.565z"/>
				</g>
				<g>
					<path fill="#352C38" d="M123.387,111.565c0,0,0.318-0.96,1.311-2.075c0.261-0.261,0.522-0.58,0.868-0.84
						c0.328-0.282,0.702-0.551,1.123-0.788c0.4-0.268,0.888-0.434,1.362-0.632c0.508-0.124,1.013-0.305,1.561-0.316
						c0.27-0.015,0.54-0.035,0.809-0.038c0.27,0.024,0.537,0.066,0.801,0.102c0.538,0.035,1.015,0.281,1.484,0.441
						c0.468,0.174,0.842,0.486,1.219,0.717c0.387,0.224,0.632,0.579,0.906,0.835c0.264,0.269,0.497,0.517,0.644,0.788
						c0.166,0.252,0.292,0.485,0.397,0.672c0.206,0.377,0.301,0.6,0.301,0.6s-0.233-0.106-0.604-0.304
						c-0.183-0.101-0.407-0.217-0.642-0.364c-0.229-0.159-0.532-0.266-0.829-0.412c-0.312-0.12-0.601-0.333-0.959-0.417
						c-0.352-0.093-0.686-0.273-1.06-0.333c-0.375-0.046-0.735-0.191-1.124-0.174c-0.191-0.011-0.383-0.017-0.574-0.04l-0.581,0.048
						c-0.391-0.016-0.774,0.133-1.166,0.173c-0.377,0.133-0.772,0.192-1.135,0.354c-0.373,0.129-0.733,0.273-1.073,0.433
						c-0.35,0.137-0.663,0.317-0.977,0.452c-0.303,0.16-0.581,0.307-0.827,0.438c-0.251,0.137-0.47,0.257-0.65,0.356
						C123.6,111.448,123.387,111.565,123.387,111.565z"/>
				</g>
			</g>
			<g>
				<path fill="#965450" d="M89.36,122.135c0,0-7-29-3-37.333c4-8.333,8.667-5.667,8.667-5.667s6.333-17.333,19.667-14
					c13.333,3.333,21,9.333,28,3.333c0,0,0,5.333-4,7.667c0,0,8.333,0,11.667-8c0,0,4.979,17.101-6.021,23.101
					c0,0,0.825,21.367,0.021,29.232l-3-0.333c0,0-1.667-11.333-2.667-25.667c0,0-17.333,9.333-38.333-7c0,0,3,11-9,18l1,15.333
					L89.36,122.135z"/>
				<path fill="#76413B" d="M132.054,96.568c-4.96-0.338-9.927-1.434-13.956-2.98c-9.016-3.463-16.762-13.731-17.375-23.681
					c-3.83,4.134-5.697,9.228-5.697,9.228s-4.667-2.667-8.667,5.667c-4,8.333,3,37.333,3,37.333l3-1.333l-1-15.333c12-7,9-18,9-18
					C113.456,97.654,125.124,97.857,132.054,96.568z"/>
			</g>
		</g>
	</g>
</g>
</svg>
